<?xml version="1.0" encoding="UTF-8"?>
<svg id="_图层_2" data-name="图层 2" xmlns="http://www.w3.org/2000/svg" xmlns:xlink="http://www.w3.org/1999/xlink" viewBox="0 0 304.04 227.65">
  <defs>
    <style>
      .cls-1 {
        fill: url(#_未命名的渐变_2152);
      }

      .cls-2 {
        fill: url(#_未命名的渐变_2137);
      }

      .cls-3 {
        fill: url(#_未命名的渐变_2096);
      }

      .cls-4 {
        fill: url(#_未命名的渐变_2079);
      }

      .cls-5 {
        fill: #7b6bd6;
      }

      .cls-6 {
        fill: #44036b;
      }
    </style>
    <linearGradient id="_未命名的渐变_2152" data-name="未命名的渐变 2152" x1="27.21" y1="109.1" x2="61.43" y2="166.85" gradientUnits="userSpaceOnUse">
      <stop offset="0" stop-color="#3e2789"/>
      <stop offset="1" stop-color="#2d0960"/>
    </linearGradient>
    <linearGradient id="_未命名的渐变_2137" data-name="未命名的渐变 2137" x1="262.8" y1="104.88" x2="262.8" y2="219.71" gradientUnits="userSpaceOnUse">
      <stop offset="0" stop-color="#9797ef"/>
      <stop offset="1" stop-color="#706ed6"/>
    </linearGradient>
    <linearGradient id="_未命名的渐变_2096" data-name="未命名的渐变 2096" x1="79.33" y1="9.51" x2="79.33" y2="181.23" gradientUnits="userSpaceOnUse">
      <stop offset="0" stop-color="#3e2099"/>
      <stop offset="1" stop-color="#4b34ad"/>
    </linearGradient>
    <linearGradient id="_未命名的渐变_2079" data-name="未命名的渐变 2079" x1="177.25" y1="227.65" x2="177.25" y2="0" gradientUnits="userSpaceOnUse">
      <stop offset="0" stop-color="#6363ce"/>
      <stop offset="1" stop-color="#5240bf"/>
    </linearGradient>
  </defs>
  <g id="_图层_1-2" data-name="图层 1">
    <g>
      <path class="cls-1" d="M10.04,106.98c-7.57,0-12.41,8.07-8.85,14.75l19.05,35.67c3.7,6.94,9.08,12.62,15.47,16.71l25.87-67.13H10.04Z"/>
      <path class="cls-6" d="M61.58,106.98l-25.87,67.13c7.12,4.56,15.5,7.13,24.27,7.13h11.92c9.69,0,18.84-3.12,26.35-8.55l-35.08-65.71h-1.59Z"/>
      <path class="cls-2" d="M268.37,104.88c-17.25,0-32.99,9.85-40.52,25.37l-6.28,12.94,26.12,76.52c6.31-4.34,11.55-10.27,15.03-17.43l40.3-82.99c3.23-6.66-1.62-14.41-9.02-14.41h-25.63Z"/>
      <path class="cls-5" d="M185.16,218.15c7.72,6,17.36,9.5,27.61,9.5h9.42c9.29,0,18.13-2.88,25.49-7.94l-26.12-76.52-36.41,74.97Z"/>
      <path class="cls-3" d="M106.08,9.51c-6.32,4.92-11.37,11.52-14.38,19.33l-30.11,78.13-19.14,49.67c-2.36,6.12-9.06,9.75-15.3,7.71-1.51-.49-2.92-1.28-4.12-2.49,0,0,5.07,7.57,12.68,12.24,7.12,4.56,15.5,7.13,24.27,7.13h11.92c9.69,0,18.84-3.12,26.35-8.55,6.93-5,12.47-11.96,15.68-20.3l21.7-56.29L106.08,9.51Z"/>
      <path class="cls-4" d="M256.86,209.35c-5.95,2.75-12.97-.75-15.09-6.96l-20.21-59.2-38.47-112.69c-2.81-8.23-7.85-15.22-14.3-20.44-7.84-6.35-17.76-10.06-28.34-10.06h-6.72c-10.25,0-19.92,3.49-27.66,9.51h0c-7.18,5.32-11.56,13.29-11.56,13.29.54-.65,1.15-1.21,1.8-1.67,5.53-3.97,13.39-.96,15.59,5.48l23.72,69.48,34.5,101.06c2.91,8.53,8.23,15.73,15.02,21,7.72,6,17.36,9.5,27.61,9.5h9.42c9.29,0,18.13-2.88,25.49-7.94,7.47-4.9,12.3-12.6,12.3-12.6-.92.98-1.98,1.71-3.12,2.24Z"/>
    </g>
  </g>
</svg>